<?xml version="1.0" encoding="utf-8"?>
<!-- Generator: Adobe Illustrator 17.0.0, SVG Export Plug-In . SVG Version: 6.00 Build 0)  -->
<!DOCTYPE svg PUBLIC "-//W3C//DTD SVG 1.1//EN" "http://www.w3.org/Graphics/SVG/1.1/DTD/svg11.dtd">
<svg version="1.1" id="Layer_2" xmlns="http://www.w3.org/2000/svg" xmlns:xlink="http://www.w3.org/1999/xlink" x="0px" y="0px"
	 width="47.175px" height="47.175px" viewBox="0 0 47.175 47.175" enable-background="new 0 0 47.175 47.175" xml:space="preserve">
<linearGradient id="SVGID_1_" gradientUnits="userSpaceOnUse" x1="23.5876" y1="46.3611" x2="23.5876" y2="0.814">
	<stop  offset="0" style="stop-color:#316B8E"/>
	<stop  offset="1" style="stop-color:#00629E"/>
</linearGradient>
<circle fill="url(#SVGID_1_)" cx="23.588" cy="23.588" r="22.774"/>
<g>
	<defs>
		<circle id="SVGID_2_" cx="23.588" cy="23.588" r="22.774"/>
	</defs>
	<clipPath id="SVGID_3_">
		<use xlink:href="#SVGID_2_"  overflow="visible"/>
	</clipPath>
	<g opacity="0.3" clip-path="url(#SVGID_3_)">
		<radialGradient id="SVGID_4_" cx="23.6495" cy="23.1407" r="37.506" gradientUnits="userSpaceOnUse">
			<stop  offset="0.5727" style="stop-color:#4CC4D3"/>
			<stop  offset="0.7881" style="stop-color:#00629E"/>
		</radialGradient>
		<polygon fill="url(#SVGID_4_)" points="23.65,60.647 23.066,32.629 19.136,60.376 21.929,32.492 14.669,59.559 20.828,32.221 
			10.331,58.204 19.767,31.817 6.197,56.335 18.754,31.283 2.328,53.988 17.804,30.625 -1.224,51.198 16.935,29.854 -4.414,48.007 
			16.164,28.985 -7.202,44.454 15.507,28.035 -9.549,40.585 14.973,27.022 -11.416,36.452 14.569,25.961 -12.769,32.117 
			14.298,24.861 -13.585,27.653 14.161,23.724 -13.856,23.141 14.161,22.557 -13.585,18.627 14.298,21.42 -12.768,14.16 
			14.57,20.319 -11.413,9.823 14.974,19.258 -9.545,5.688 15.508,18.245 -7.197,1.82 16.166,17.295 -4.408,-1.732 16.937,16.426 
			-1.217,-4.923 17.806,15.655 2.336,-7.711 18.756,14.998 6.205,-10.058 19.769,14.464 10.338,-11.925 20.829,14.06 
			14.673,-13.278 21.93,13.789 19.137,-14.094 23.066,13.652 23.65,-14.365 24.233,13.652 28.163,-14.094 25.37,13.789 
			32.63,-13.277 26.471,14.061 36.968,-11.922 27.532,14.465 41.102,-10.054 28.545,14.999 44.97,-7.706 29.495,15.657 
			48.522,-4.917 30.364,16.428 51.713,-1.726 31.135,17.297 54.501,1.827 31.792,18.247 56.848,5.696 32.326,19.26 58.715,9.829 
			32.73,20.32 60.068,14.164 33.001,21.421 60.885,18.628 33.138,22.557 61.155,23.141 33.138,23.724 60.884,27.653 33.001,24.861 
			60.067,32.121 32.729,25.962 58.712,36.458 32.325,27.024 56.844,40.593 31.791,28.037 54.497,44.461 31.133,28.986 
			51.707,48.014 30.362,29.856 48.516,51.204 29.493,30.626 44.964,53.993 28.543,31.284 41.095,56.339 27.531,31.818 
			36.961,58.206 26.47,32.221 32.626,59.56 25.369,32.492 28.162,60.376 24.233,32.629 		"/>
	</g>
</g>
<g opacity="0.25">
	<path fill="#052030" d="M23.588,34.231c-5.869,0-10.644-4.775-10.644-10.644c0-5.869,4.775-10.644,10.644-10.644
		s10.644,4.775,10.644,10.644C34.232,29.456,29.457,34.231,23.588,34.231z"/>
</g>
<circle fill="#052030" cx="23.588" cy="23.588" r="8.801"/>
<circle fill="#FFFFFF" cx="21.517" cy="21.544" r="2.008"/>
</svg>
