<?xml version="1.0" encoding="utf-8"?>
<!-- Generator: Adobe Illustrator 17.0.0, SVG Export Plug-In . SVG Version: 6.00 Build 0)  -->
<!DOCTYPE svg PUBLIC "-//W3C//DTD SVG 1.1//EN" "http://www.w3.org/Graphics/SVG/1.1/DTD/svg11.dtd">
<svg version="1.1" id="Layer_2" xmlns="http://www.w3.org/2000/svg" xmlns:xlink="http://www.w3.org/1999/xlink" x="0px" y="0px"
	 width="47.175px" height="47.175px" viewBox="0 0 47.175 47.175" enable-background="new 0 0 47.175 47.175" xml:space="preserve">
<linearGradient id="SVGID_1_" gradientUnits="userSpaceOnUse" x1="23.5876" y1="47.1751" x2="23.5876" y2="0">
	<stop  offset="0" style="stop-color:#316B8E"/>
	<stop  offset="1" style="stop-color:#00629E"/>
</linearGradient>
<circle fill="url(#SVGID_1_)" cx="23.588" cy="23.588" r="23.588"/>
<g>
	<defs>
		<circle id="SVGID_2_" cx="23.588" cy="23.588" r="23.588"/>
	</defs>
	<clipPath id="SVGID_3_">
		<use xlink:href="#SVGID_2_"  overflow="visible"/>
	</clipPath>
	<g opacity="0.3" clip-path="url(#SVGID_3_)">
		<radialGradient id="SVGID_4_" cx="23.652" cy="23.1249" r="38.3105" gradientUnits="userSpaceOnUse">
			<stop  offset="0.5727" style="stop-color:#4CC4D3"/>
			<stop  offset="0.7881" style="stop-color:#00629E"/>
		</radialGradient>
		<polygon fill="url(#SVGID_4_)" points="23.652,61.435 23.02,33.417 19.043,61.159 21.786,33.268 14.48,60.324 20.591,32.973 
			10.049,58.94 19.439,32.534 5.826,57.032 18.34,31.955 1.875,54.634 17.31,31.242 -1.754,51.785 16.369,30.407 -5.013,48.525 
			15.533,29.465 -7.862,44.896 14.821,28.435 -10.259,40.944 14.242,27.336 -12.166,36.722 13.803,26.184 -13.548,32.294 
			13.509,24.99 -14.382,27.734 13.36,23.757 -14.659,23.125 13.36,22.493 -14.382,18.516 13.509,21.259 -13.547,13.953 
			13.804,20.064 -12.163,9.522 14.242,18.912 -10.255,5.299 14.822,17.813 -7.857,1.347 15.535,16.783 -5.008,-2.281 16.37,15.841 
			-1.748,-5.541 17.312,15.006 1.881,-8.389 18.342,14.293 5.833,-10.786 19.441,13.714 10.055,-12.693 20.592,13.276 
			14.483,-14.075 21.787,12.982 19.043,-14.909 23.02,12.833 23.652,-15.186 24.284,12.833 28.261,-14.909 25.518,12.982 
			32.824,-14.074 26.713,13.277 37.255,-12.691 27.865,13.715 41.477,-10.782 28.964,14.295 45.429,-8.384 29.994,15.008 
			49.058,-5.535 30.935,15.843 52.317,-2.275 31.771,16.785 55.166,1.354 32.483,17.815 57.563,5.306 33.062,18.914 59.47,9.528 
			33.501,20.065 60.852,13.956 33.795,21.26 61.686,18.516 33.944,22.493 61.963,23.125 33.944,23.757 61.686,27.734 33.795,24.991 
			60.851,32.297 33.5,26.186 59.467,36.728 33.062,27.338 57.559,40.95 32.482,28.437 55.161,44.902 31.769,29.467 52.312,48.531 
			30.934,30.408 49.052,51.79 29.992,31.243 45.423,54.639 28.962,31.956 41.471,57.036 27.863,32.535 37.249,58.943 26.712,32.973 
			32.821,60.325 25.517,33.268 28.261,61.159 24.284,33.417 		"/>
	</g>
</g>
<g opacity="0.25">
	<path fill="#052030" d="M23.588,34.541c-6.04,0-10.953-4.914-10.953-10.953c0-6.039,4.914-10.953,10.953-10.953
		S34.54,17.548,34.54,23.587C34.54,29.627,29.627,34.541,23.588,34.541z"/>
	<path fill="none" d="M23.588,34.541c-6.04,0-10.953-4.914-10.953-10.953c0-6.039,4.914-10.953,10.953-10.953
		S34.54,17.548,34.54,23.587C34.54,29.627,29.627,34.541,23.588,34.541z"/>
</g>
<circle fill="#052030" cx="23.588" cy="23.588" r="9.115"/>
<circle fill="#FFFFFF" cx="21.443" cy="21.471" r="2.079"/>
</svg>
